<svg width="16" height="16" viewBox="0 0 16 16" fill="none" xmlns="http://www.w3.org/2000/svg">
<path d="M5.65807 15.7528C5.24245 16.1161 4.61151 16.0735 4.24792 15.6581C3.88434 15.2425 3.92618 14.6116 4.34167 14.2479L11.4823 8.00083L4.34167 1.75181C3.9264 1.38818 3.88365 0.757196 4.24694 0.34165C4.61061 -0.0739765 5.24244 -0.115753 5.65807 0.2479L13.6581 7.24692C13.6604 7.24898 13.6626 7.25168 13.6649 7.25376C13.6953 7.28089 13.7253 7.30925 13.7528 7.34067C13.7635 7.35293 13.7731 7.36614 13.7831 7.37876C13.7906 7.38822 13.7984 7.39741 13.8055 7.40708C13.8163 7.42169 13.8259 7.43698 13.8358 7.452C13.8439 7.46427 13.8518 7.47656 13.8592 7.48911C13.8688 7.50509 13.8771 7.52159 13.8856 7.53794C13.893 7.55218 13.9004 7.56638 13.9071 7.58091C13.915 7.59805 13.9227 7.61521 13.9296 7.63267C13.933 7.6415 13.9371 7.65012 13.9403 7.65903C13.9487 7.68225 13.9561 7.70571 13.9628 7.72935C13.9641 7.73421 13.9654 7.73911 13.9667 7.74399L13.9755 7.77915C13.9851 7.82205 13.991 7.86549 13.995 7.90903C13.9962 7.92238 13.9982 7.93568 13.9989 7.94907C14.0015 8.00187 13.9997 8.05477 13.994 8.10728C13.993 8.11707 13.9914 8.1268 13.9901 8.13657C13.9872 8.15783 13.9836 8.17899 13.9794 8.20005C13.9768 8.21242 13.9745 8.22486 13.9715 8.23716C13.9678 8.25257 13.9633 8.26781 13.9589 8.28306C13.9544 8.29833 13.9504 8.31385 13.9452 8.32895C13.9381 8.34936 13.9302 8.36952 13.9217 8.3895C13.9186 8.39701 13.9153 8.40452 13.912 8.41196C13.8895 8.46175 13.8618 8.50937 13.8309 8.55552C13.8229 8.56754 13.8152 8.57989 13.8065 8.59165C13.8034 8.59595 13.8 8.60009 13.7967 8.60435L13.7528 8.65806C13.7508 8.66032 13.7489 8.66265 13.7469 8.66489C13.7197 8.69542 13.6906 8.72514 13.659 8.75278L5.65807 15.7528Z" fill="white"/>
</svg>
