<svg width="16" height="16" viewBox="0 0 16 16" fill="none" xmlns="http://www.w3.org/2000/svg">
<path d="M10.3419 0.247217C10.7575 -0.116127 11.3885 -0.0735215 11.7521 0.341944C12.1157 0.757537 12.0738 1.38842 11.6583 1.7521L4.5177 7.99917L11.6583 14.2482C12.0736 14.6118 12.1163 15.2428 11.7531 15.6583C11.3894 16.074 10.7576 16.1158 10.3419 15.7521L2.34192 8.75308C2.33957 8.75102 2.33741 8.74832 2.33508 8.74624C2.3047 8.71911 2.27472 8.69075 2.24719 8.65933C2.23647 8.64707 2.22694 8.63386 2.21692 8.62124C2.2094 8.61178 2.20159 8.60259 2.19446 8.59292C2.18369 8.57831 2.17405 8.56302 2.16419 8.548C2.15613 8.53573 2.14821 8.52344 2.14075 8.51089C2.13123 8.49491 2.12292 8.47841 2.11438 8.46206C2.10696 8.44782 2.0996 8.43362 2.0929 8.41909C2.08497 8.40195 2.07733 8.38479 2.07044 8.36733C2.06695 8.3585 2.06292 8.34988 2.05969 8.34097C2.05129 8.31775 2.04385 8.29429 2.03723 8.27065C2.03587 8.26579 2.03461 8.26089 2.03333 8.25601L2.02454 8.22085C2.01487 8.17795 2.00895 8.13451 2.00501 8.09097C2.00379 8.07762 2.00178 8.06432 2.0011 8.05093C1.99844 7.99813 2.00034 7.94523 2.00598 7.89272C2.00703 7.88293 2.00855 7.8732 2.00989 7.86343C2.01281 7.84217 2.01635 7.82101 2.02063 7.79995C2.02315 7.78758 2.02545 7.77514 2.02844 7.76284C2.03219 7.74743 2.03666 7.73219 2.04114 7.71694C2.04564 7.70167 2.04956 7.68615 2.05481 7.67105C2.06188 7.65064 2.06983 7.63048 2.07825 7.6105C2.08142 7.60299 2.08465 7.59548 2.08801 7.58804C2.11045 7.53825 2.13819 7.49063 2.16907 7.44448C2.17713 7.43246 2.18484 7.42011 2.19348 7.40835C2.19664 7.40405 2.20001 7.39991 2.20325 7.39565L2.24719 7.34194C2.24917 7.33968 2.25106 7.33735 2.25305 7.33511C2.28029 7.30458 2.30938 7.27486 2.34094 7.24722L10.3419 0.247217Z" fill="white"/>
</svg>
