<svg width="32" height="32" viewBox="0 0 32 32" fill="none" xmlns="http://www.w3.org/2000/svg">
<g clip-path="url(#clip0_90_134)">
<path fill-rule="evenodd" clip-rule="evenodd" d="M16.9648 0.735352C16.9656 0.737916 16.9661 0.743225 16.9678 0.749023C16.971 0.760556 16.9766 0.778136 16.9834 0.801758C16.9972 0.849823 17.0188 0.922769 17.0469 1.0166C17.103 1.20436 17.1871 1.47849 17.2979 1.81738C17.5199 2.4968 17.8468 3.43444 18.2676 4.46387C19.1243 6.55994 20.3136 8.89944 21.707 10.293C23.1005 11.6864 25.4401 12.8757 27.5361 13.7324C28.5655 14.1532 29.5032 14.4801 30.1826 14.7021C30.5217 14.813 30.7956 14.8979 30.9834 14.9541C31.0767 14.982 31.1492 15.0018 31.1973 15.0156C31.221 15.0224 31.2394 15.029 31.251 15.0322C31.2564 15.0338 31.2611 15.0344 31.2637 15.0352L31.2656 15.0361C31.2645 15.0398 31.2487 15.0975 30.999 16L31.2666 16.9629L31.2637 16.9648C31.2611 16.9656 31.2564 16.9662 31.251 16.9678C31.2394 16.971 31.221 16.9776 31.1973 16.9844C31.1492 16.9982 31.0767 17.018 30.9834 17.0459C30.7956 17.1021 30.5217 17.187 30.1826 17.2979C29.5032 17.5199 28.5655 17.8468 27.5361 18.2676C25.4401 19.1243 23.1005 20.3136 21.707 21.707C20.3136 23.1006 19.1243 25.4401 18.2676 27.5361C17.8468 28.5656 17.5199 29.5032 17.2979 30.1826C17.1871 30.5215 17.103 30.7956 17.0469 30.9834C17.0188 31.0772 16.9972 31.1502 16.9834 31.1982C16.9766 31.2219 16.971 31.2394 16.9678 31.251C16.9661 31.2568 16.9656 31.2621 16.9648 31.2646L16.9639 31.2666L16 31L15.0361 31.2666L15.0352 31.2646C15.0344 31.2621 15.0329 31.2568 15.0312 31.251C15.028 31.2394 15.0234 31.2209 15.0166 31.1973C15.0028 31.1493 14.9819 31.0775 14.9541 30.9844C14.898 30.7966 14.8139 30.5217 14.7031 30.1826C14.4811 29.5032 14.1532 28.5657 13.7324 27.5361C12.8757 25.4401 11.6864 23.1005 10.293 21.707C8.89946 20.3136 6.55992 19.1243 4.46387 18.2676C3.43469 17.8469 2.49772 17.5199 1.81836 17.2979C1.47917 17.187 1.20445 17.1031 1.0166 17.0469C0.922995 17.0189 0.850824 16.9972 0.802734 16.9834C0.778885 16.9765 0.760634 16.971 0.749023 16.9678C0.743225 16.9661 0.737916 16.9656 0.735352 16.9648L0.733398 16.9639C0.73401 16.9619 0.745662 16.9192 1 16L0.733398 15.0361L0.735352 15.0352C0.737916 15.0344 0.743225 15.0339 0.749023 15.0322C0.760634 15.029 0.778885 15.0235 0.802734 15.0166C0.850824 15.0028 0.922995 14.9811 1.0166 14.9531C1.20445 14.8969 1.47917 14.813 1.81836 14.7021C2.49772 14.4801 3.43469 14.1531 4.46387 13.7324C6.55992 12.8757 8.89946 11.6864 10.293 10.293C11.6864 8.89945 12.8757 6.55993 13.7324 4.46387C14.1532 3.43435 14.4811 2.4968 14.7031 1.81738C14.8139 1.4783 14.898 1.20338 14.9541 1.01562C14.9819 0.922503 15.0028 0.850661 15.0166 0.802734C15.0234 0.779075 15.028 0.760639 15.0312 0.749023C15.0329 0.743225 15.0344 0.737916 15.0352 0.735352L15.0361 0.733398L16 1C16.9084 0.748666 16.9609 0.734307 16.9639 0.733398L16.9648 0.735352ZM15.9834 10.418C15.8688 11.674 15.3927 13.0221 14.208 14.207C13.0233 15.3918 11.6749 15.8677 10.4189 15.9824C10.408 15.9879 10.3977 15.9946 10.3867 16C10.3975 16.0054 10.4081 16.0112 10.4189 16.0166C11.675 16.1313 13.0232 16.6082 14.208 17.793C15.3921 18.9773 15.8685 20.3246 15.9834 21.5801C15.9886 21.5905 15.9939 21.6009 15.999 21.6113C16.0048 21.5996 16.0108 21.5879 16.0166 21.5762C16.1321 20.3218 16.6099 18.9761 17.793 17.793C18.9764 16.6097 20.3225 16.1321 21.5771 16.0166C21.5882 16.0111 21.5993 16.0055 21.6104 16C21.5991 15.9944 21.5884 15.988 21.5771 15.9824C20.3226 15.8669 18.9763 15.3903 17.793 14.207C16.6093 13.0232 16.1318 11.6768 16.0166 10.4219C16.0109 10.4104 16.0047 10.3992 15.999 10.3877C15.994 10.3979 15.9885 10.4078 15.9834 10.418Z" fill="#3A5BA0"/>
</g>
<defs>
<clipPath id="clip0_90_134">
<rect width="32" height="32" fill="white"/>
</clipPath>
</defs>
</svg>
