<svg width="16" height="16" viewBox="0 0 16 16" fill="none" xmlns="http://www.w3.org/2000/svg">
<path d="M2.70691 14.707C2.31638 15.0975 1.68336 15.0975 1.29285 14.707C0.90243 14.3164 0.90238 13.6834 1.29285 13.2929L6.58581 7.99992L1.29285 2.70696C0.90243 2.31643 0.90238 1.68339 1.29285 1.29289C1.68334 0.902402 2.31638 0.902469 2.70691 1.29289L7.99988 6.58586L13.2928 1.29289C13.6833 0.902501 14.3164 0.902502 14.7069 1.29289C15.0974 1.68338 15.0973 2.31642 14.7069 2.70696L9.41394 7.99992L14.7069 13.2929C15.0973 13.6834 15.0974 14.3165 14.7069 14.707C14.3164 15.0974 13.6834 15.0974 13.2928 14.707L7.99988 9.41399L2.70691 14.707Z" fill="white"/>
</svg>
